<svg width="100" height="100" viewBox="0 0 100 100" fill="none" xmlns="http://www.w3.org/2000/svg">
<circle cx="50" cy="50" r="50" fill="#EA6438"/>
<path d="M31.38 62V37.5H41.215C43.7583 37.5 45.695 38.095 47.025 39.285C48.3783 40.4517 49.055 41.9567 49.055 43.8C49.055 45.34 48.635 46.5767 47.795 47.51C46.9783 48.42 45.975 49.0383 44.785 49.365C46.185 49.645 47.34 50.345 48.25 51.465C49.16 52.5617 49.615 53.845 49.615 55.315C49.615 57.2517 48.915 58.85 47.515 60.11C46.115 61.37 44.1317 62 41.565 62H31.38ZM35.86 47.79H40.55C41.81 47.79 42.7783 47.4983 43.455 46.915C44.1317 46.3317 44.47 45.5033 44.47 44.43C44.47 43.4033 44.1317 42.5983 43.455 42.015C42.8017 41.4083 41.81 41.105 40.48 41.105H35.86V47.79ZM35.86 58.36H40.865C42.195 58.36 43.2217 58.0567 43.945 57.45C44.6917 56.82 45.065 55.945 45.065 54.825C45.065 53.6817 44.68 52.7833 43.91 52.13C43.14 51.4767 42.1017 51.15 40.795 51.15H35.86V58.36ZM61.7901 62.42C60.0401 62.42 58.4884 62.0467 57.1351 61.3C55.7817 60.5533 54.7201 59.5033 53.9501 58.15C53.1801 56.7967 52.7951 55.2333 52.7951 53.46C52.7951 51.6633 53.1684 50.065 53.9151 48.665C54.6851 47.265 55.7351 46.18 57.0651 45.41C58.4184 44.6167 60.0051 44.22 61.8251 44.22C63.5284 44.22 65.0334 44.5933 66.3401 45.34C67.6467 46.0867 68.6617 47.1133 69.3851 48.42C70.1317 49.7033 70.5051 51.1383 70.5051 52.725C70.5051 52.9817 70.4934 53.25 70.4701 53.53C70.4701 53.81 70.4584 54.1017 70.4351 54.405H57.2401C57.3334 55.7583 57.8001 56.82 58.6401 57.59C59.5034 58.36 60.5417 58.745 61.7551 58.745C62.6651 58.745 63.4234 58.5467 64.0301 58.15C64.6601 57.73 65.1267 57.1933 65.4301 56.54H69.9801C69.6534 57.6367 69.1051 58.64 68.3351 59.55C67.5884 60.4367 66.6551 61.1367 65.5351 61.65C64.4384 62.1633 63.1901 62.42 61.7901 62.42ZM61.8251 47.86C60.7284 47.86 59.7601 48.175 58.9201 48.805C58.0801 49.4117 57.5434 50.345 57.3101 51.605H65.9551C65.8851 50.4617 65.4651 49.5517 64.6951 48.875C63.9251 48.1983 62.9684 47.86 61.8251 47.86Z" fill="white"/>
</svg>
